<svg width="800" height="600" viewBox="0 0 800 600" fill="none" xmlns="http://www.w3.org/2000/svg">
  <!-- Fondo con gradiente suave -->
  <defs>
    <linearGradient id="bgGradient" x1="0" y1="0" x2="800" y2="600" gradientUnits="userSpaceOnUse">
      <stop offset="0%" stop-color="#F0F9FF"/>
      <stop offset="100%" stop-color="#E0F2FE"/>
    </linearGradient>
    <!-- Gradiente para elementos decorativos -->
    <linearGradient id="accentGradient" x1="0" y1="0" x2="1" y2="1">
      <stop offset="0%" stop-color="#0EA5E9"/>
      <stop offset="100%" stop-color="#7DD3FC"/>
    </linearGradient>
  </defs>

  <!-- Fondo base -->
  <rect width="800" height="600" fill="url(#bgGradient)"/>

  <!-- Círculos decorativos -->
  <circle cx="600" cy="150" r="120" fill="url(#accentGradient)" fill-opacity="0.1"/>
  <circle cx="200" cy="450" r="150" fill="url(#accentGradient)" fill-opacity="0.05"/>

  <!-- Pantalla/Dashboard -->
  <rect x="300" y="100" width="400" height="300" rx="20" fill="white" filter="drop-shadow(0 4px 6px rgba(0,0,0,0.1))"/>
  
  <!-- Elementos de la interfaz -->
  <rect x="320" y="120" width="180" height="30" rx="6" fill="#E0F2FE"/>
  <circle cx="340" cy="135" r="8" fill="#0EA5E9"/>
  
  <!-- Gráfico dental simplificado -->
  <path d="M150 250C120 250 100 270 100 300C100 315 105 330 115 340L150 400L185 340C195 330 200 315 200 300C200 270 180 250 150 250Z" 
        fill="url(#accentGradient)" fill-opacity="0.8"/>
  
  <!-- Líneas de conexión -->
  <path d="M200 300Q400 280 580 320" stroke="#0EA5E9" stroke-width="2" stroke-dasharray="4 4"/>
  
  <!-- Puntos de datos -->
  <circle cx="350" cy="200" r="4" fill="#0EA5E9"/>
  <circle cx="450" cy="220" r="4" fill="#0EA5E9"/>
  <circle cx="550" cy="240" r="4" fill="#0EA5E9"/>

  <!-- Calendar icon -->
  <rect x="320" y="180" width="100" height="100" rx="10" fill="#F0F9FF"/>
  <rect x="340" y="220" width="60" height="4" rx="2" fill="#0EA5E9"/>
  <rect x="340" y="240" width="40" height="4" rx="2" fill="#0EA5E9"/>
  
  <!-- Elementos abstractos -->
  <circle cx="680" cy="350" r="8" fill="#0EA5E9" fill-opacity="0.5"/>
  <circle cx="700" cy="350" r="8" fill="#0EA5E9" fill-opacity="0.3"/>
  <circle cx="720" cy="350" r="8" fill="#0EA5E9" fill-opacity="0.1"/>
</svg>
