<?xml version="1.0" encoding="utf-8"?>
<!-- Generator: Adobe Illustrator 24.1.0, SVG Export Plug-In . SVG Version: 6.00 Build 0)  -->
<svg version="1.1" id="Layer_1" xmlns="http://www.w3.org/2000/svg" xmlns:xlink="http://www.w3.org/1999/xlink" x="0px" y="0px"
	 viewBox="0 0 48 48" style="enable-background:new 0 0 48 48;" xml:space="preserve">
<path d="M29.121,21.582C32.04,19.834,34,16.643,34,13c0-5.514-4.486-10-10-10S14,7.486,14,13c0,3.647,1.965,6.839,4.889,8.586
	C12.568,23.056,8,27.164,8,32v12c0,0.552,0.448,1,1,1h30c0.552,0,1-0.448,1-1V32C40,27.166,35.438,23.054,29.121,21.582z M16,13
	c0-4.411,3.589-8,8-8s8,3.589,8,8s-3.589,8-8,8S16,17.411,16,13z M38,43H10V32c0-4.962,6.28-9,14-9s14,4.038,14,9V43z M27,27
	c-1.193,0-2.267,0.525-3,1.357C23.267,27.525,22.193,27,21,27c-2.206,0-4,1.794-4,4c0,3.414,3.637,7.051,6.293,9.707
	C23.488,40.902,23.744,41,24,41s0.512-0.098,0.707-0.293C27.363,38.051,31,34.414,31,31C31,28.794,29.206,27,27,27z M24,38.583
	c-2.214-2.237-5-5.254-5-7.583c0-1.103,0.897-2,2-2s2,0.897,2,2c0,0.552,0.448,1,1,1s1-0.448,1-1c0-1.103,0.897-2,2-2s2,0.897,2,2
	C29,33.329,26.214,36.346,24,38.583z"/>
</svg>
